<svg width="46" height="46" viewBox="0 0 46 46" fill="none" xmlns="http://www.w3.org/2000/svg">
<path d="M29.3973 22.1665C33.0365 21.6067 35.5328 18.2029 34.973 14.5638C34.4132 10.9247 31.0094 8.42838 27.3703 8.98813C23.7312 9.54789 21.2349 12.9517 21.7947 16.5908C21.9568 17.6449 22.3575 18.6031 22.9335 19.4189C23.0865 19.6357 23.1667 19.8981 23.1379 20.1619L22.9711 21.689C22.8986 22.352 23.5708 22.8449 24.1813 22.5766L25.5877 21.9585C25.8307 21.8517 26.105 21.8494 26.3578 21.9302C27.309 22.2344 28.3433 22.3286 29.3973 22.1665Z" stroke="#6BB247" stroke-width="2"/>
<path d="M25.7479 15.9833L31.0193 15.1725M28.789 18.2136L27.9782 12.9422" stroke="#6BB247" stroke-width="2" stroke-linecap="round"/>
<path d="M17.7277 19.2124L16.9387 19.8268L16.9387 19.8268L17.7277 19.2124ZM16.6367 17.8114L15.8477 18.4258L15.8477 18.4258L16.6367 17.8114ZM10.2126 22.3681C10.1494 21.8195 9.6534 21.426 9.10474 21.4892C8.55609 21.5524 8.16257 22.0484 8.22579 22.5971L10.2126 22.3681ZM15.7466 32.8092L16.338 32.0029L15.7466 32.8092ZM19.4899 27.7051L20.0812 26.8987L20.0812 26.8987L19.4899 27.7051ZM28.1195 26.8335L27.7706 27.7707L27.7706 27.7707L28.1195 26.8335ZM29.7836 27.4531L30.1325 26.5159L30.1325 26.5159L29.7836 27.4531ZM27.5575 35.9315L27.7468 36.9134L27.7468 36.9134L27.5575 35.9315ZM31.1951 33.3063L32.0015 33.8976L32.0015 33.8976L31.1951 33.3063ZM9.8235 17.6328C9.49688 18.0781 9.59314 18.704 10.0385 19.0306C10.4839 19.3572 11.1097 19.2609 11.4363 18.8156L9.8235 17.6328ZM23.5646 35.0573C23.0167 34.9875 22.516 35.3751 22.4463 35.923C22.3766 36.4708 22.7641 36.9715 23.312 37.0413L23.5646 35.0573ZM18.7974 35.7539C19.3016 35.9792 19.893 35.7532 20.1184 35.2489C20.3437 34.7447 20.1176 34.1533 19.6134 33.9279L18.7974 35.7539ZM17.6528 23.7414L18.4593 24.3327L17.6528 23.7414ZM17.6528 23.7414L18.4592 24.3327L17.6528 23.7414ZM23.8224 28.266L24.6284 28.8579L23.8224 28.266ZM23.8225 28.2659L23.0161 27.6745L23.8225 28.2659ZM18.5167 18.598L17.4256 17.197L15.8477 18.4258L16.9387 19.8268L18.5167 18.598ZM8.22579 22.5971C8.54365 25.3554 9.95223 29.7999 15.1552 33.6156L16.338 32.0029C11.6557 28.569 10.4777 24.6684 10.2126 22.3681L8.22579 22.5971ZM20.0812 26.8987C18.6848 25.8746 18.4446 25.1119 18.4092 24.7715C18.3712 24.4062 18.5368 24.227 18.4593 24.3327L16.8464 23.1501C16.7687 23.2561 16.3105 23.9277 16.4199 24.9786C16.532 26.0545 17.2104 27.2735 18.8985 28.5115L20.0812 26.8987ZM27.7706 27.7707L29.4347 28.3903L30.1325 26.5159L28.4684 25.8964L27.7706 27.7707ZM18.8985 28.5115C20.5855 29.7487 21.9514 30.0299 23.011 29.8141C24.0463 29.6032 24.5498 28.965 24.6284 28.8579L23.0164 27.6741C23.0933 27.5693 22.9719 27.781 22.6119 27.8543C22.2764 27.9226 21.4769 27.9222 20.0812 26.8987L18.8985 28.5115ZM30.3887 32.7149C29.5241 33.8938 28.4985 34.7316 27.3681 34.9496L27.7468 36.9134C29.5866 36.5586 30.9994 35.2641 32.0015 33.8976L30.3887 32.7149ZM29.4347 28.3903C30.9706 28.9621 31.6219 31.0334 30.3887 32.7149L32.0015 33.8976C33.875 31.343 33.132 27.6327 30.1325 26.5159L29.4347 28.3903ZM24.6289 28.8573C25.4243 27.7727 26.7355 27.3853 27.7706 27.7707L28.4684 25.8964C26.5001 25.1636 24.278 25.9539 23.0161 27.6745L24.6289 28.8573ZM17.4256 17.197C15.4591 14.6718 11.697 15.0782 9.8235 17.6328L11.4363 18.8156C12.6694 17.1341 14.8407 17.1328 15.8477 18.4258L17.4256 17.197ZM18.4592 24.3327C19.7211 22.6121 19.8072 20.2551 18.5167 18.598L16.9387 19.8268C17.6174 20.6983 17.6419 22.0654 16.8464 23.15L18.4592 24.3327ZM27.3681 34.9496C26.39 35.1382 25.0909 35.2516 23.5646 35.0573L23.312 37.0413C25.0779 37.2661 26.5919 37.1361 27.7468 36.9134L27.3681 34.9496ZM19.6134 33.9279C18.5727 33.4629 17.475 32.8367 16.338 32.0029L15.1552 33.6156C16.403 34.5308 17.6233 35.2293 18.7974 35.7539L19.6134 33.9279ZM18.4593 24.3327L18.4592 24.3327L16.8464 23.15L16.8464 23.1501L18.4593 24.3327ZM24.6284 28.8579L24.6289 28.8573L23.0161 27.6745L23.0164 27.6741L24.6284 28.8579Z" fill="#6BB247"/>
</svg>
