<svg width="108" height="91" viewBox="0 0 108 91" fill="none" xmlns="http://www.w3.org/2000/svg">
<path fill-rule="evenodd" clip-rule="evenodd" d="M42.79 16.8307V24.2476H38.7962V16.8307H42.79Z" fill="#7BBA5B"/>
<path fill-rule="evenodd" clip-rule="evenodd" d="M42.79 73.5987V81.0157H38.7962V73.5987H42.79Z" fill="#7BBA5B"/>
<path fill-rule="evenodd" clip-rule="evenodd" d="M42.79 1.71159V9.12852H38.7962V1.71159H42.79Z" fill="#7BBA5B"/>
<path fill-rule="evenodd" clip-rule="evenodd" d="M48.21 3.99373L33.3762 3.99373L33.3762 3.17198e-08L48.21 0L48.21 3.99373Z" fill="#7BBA5B"/>
<path fill-rule="evenodd" clip-rule="evenodd" d="M42.79 29.0972V50.7774H38.7962V29.0972H42.79Z" fill="#7BBA5B"/>
<path fill-rule="evenodd" clip-rule="evenodd" d="M42.5047 50.7774L20.8244 50.7774L20.8244 46.7837L42.5047 46.7837L42.5047 50.7774Z" fill="#7BBA5B"/>
<path fill-rule="evenodd" clip-rule="evenodd" d="M16.2602 50.7774L8.84327 50.7775L8.84324 46.7838L16.2602 46.7837L16.2602 50.7774Z" fill="#7BBA5B"/>
<path fill-rule="evenodd" clip-rule="evenodd" d="M40.5078 84.1536C60.0438 84.1536 75.8809 68.3166 75.8809 48.7806C75.8809 29.2446 60.0438 13.4075 40.5078 13.4075C20.9718 13.4075 5.1348 29.2446 5.1348 48.7806C5.1348 68.3166 20.9718 84.1536 40.5078 84.1536ZM40.5078 89.2884C62.8797 89.2884 81.0157 71.1524 81.0157 48.7806C81.0157 26.4087 62.8797 8.27274 40.5078 8.27274C18.136 8.27274 0 26.4087 0 48.7806C0 71.1524 18.136 89.2884 40.5078 89.2884Z" fill="#7BBA5B"/>
<path d="M107.831 63.8997C107.831 78.8668 95.6975 91 80.7304 91C65.7633 91 53.6301 78.8668 53.6301 63.8997C53.6301 48.9326 65.7633 36.7994 80.7304 36.7994C95.6975 36.7994 107.831 48.9326 107.831 63.8997Z" fill="black" fill-opacity="0.7"/>
<path fill-rule="evenodd" clip-rule="evenodd" d="M94.5297 53.5635C95.2977 54.355 95.2785 55.6192 94.487 56.3872L76.8586 73.4893C76.0831 74.2416 74.85 74.2407 74.0756 73.4873L64.3406 64.0153C63.5501 63.2463 63.5328 61.982 64.3019 61.1916C65.071 60.4012 66.3352 60.3839 67.1256 61.1529L75.4702 69.272L91.7061 53.5207C92.4976 52.7528 93.7618 52.772 94.5297 53.5635Z" fill="white"/>
</svg>
