<svg width="64" height="91" viewBox="0 0 64 91" fill="none" xmlns="http://www.w3.org/2000/svg">
<path fill-rule="evenodd" clip-rule="evenodd" d="M16.069 4.26234C26.0101 -1.51391 38.2295 -1.41295 48.0773 4.5268C57.8284 10.5875 63.7548 21.4041 63.6996 33.0398C63.4727 44.5991 57.1178 55.4648 49.1743 63.8646C44.5895 68.7346 39.4606 73.0408 33.8924 76.6955C33.319 77.0271 32.6908 77.249 32.039 77.3505C31.4116 77.3238 30.8006 77.1384 30.2611 76.811C21.7602 71.3197 14.3023 64.3103 8.24616 56.1199C3.17859 49.283 0.29955 41.0231 6.2481e-06 32.4618C-0.00657765 20.8038 6.12782 10.0386 16.069 4.26234ZM21.8152 37.287C23.4874 41.4096 27.4346 44.0987 31.8136 44.0987C34.6824 44.1193 37.4401 42.9702 39.4722 40.9074C41.5044 38.8447 42.6421 36.0397 42.6319 33.1174C42.6473 28.6568 40.0212 24.6267 35.9799 22.9089C31.9386 21.1911 27.2792 22.1244 24.1774 25.273C21.0755 28.4216 20.143 33.1644 21.8152 37.287Z" fill="#7BBA5B"/>
<ellipse opacity="0.4" cx="31.848" cy="86.45" rx="22.7501" ry="4.55003" fill="#7BBA5B" fill-opacity="0.97"/>
</svg>
