<svg width="130" height="76" viewBox="0 0 130 76" fill="none" xmlns="http://www.w3.org/2000/svg">
<path d="M39.7852 21.0195L43.4297 20.7969C43.5781 21.4844 43.6875 22.2891 43.7578 23.2109C44.25 22.4141 44.8281 21.8164 45.4922 21.418C46.1641 21.0195 46.9219 20.8203 47.7656 20.8203C48.4922 20.8203 49.1016 20.9648 49.5938 21.2539C50.0859 21.5352 50.4805 21.9844 50.7773 22.6016C51.0742 23.2188 51.2227 23.9102 51.2227 24.6758V30.0195C51.2227 30.418 51.3125 30.7031 51.4922 30.875C51.6719 31.0391 51.9727 31.1211 52.3945 31.1211H53.168V32H47.3789V31.1211H47.9297C48.4453 31.1211 48.8047 31.0391 49.0078 30.875C49.2109 30.7109 49.3125 30.4648 49.3125 30.1367V25.4375C49.3125 24.4141 49.1562 23.6562 48.8438 23.1641C48.4062 22.4609 47.7422 22.1094 46.8516 22.1094C45.9688 22.1094 45.2305 22.4648 44.6367 23.1758C44.0508 23.8867 43.7578 24.8125 43.7578 25.9531V30.0195C43.7578 30.418 43.8477 30.7031 44.0273 30.875C44.2148 31.0391 44.5195 31.1211 44.9414 31.1211H45.7031V32H39.8906V31.1211H40.6523C41.0352 31.1211 41.3242 31.043 41.5195 30.8867C41.7227 30.7305 41.8242 30.5352 41.8242 30.3008V23.2109C41.8242 22.7422 41.6953 22.3867 41.4375 22.1445C41.1875 21.9023 40.8242 21.7812 40.3477 21.7812H39.7852V21.0195ZM60.6797 14.668L64.9688 14.4688V29.4922C64.9688 30.0781 65.0781 30.4961 65.2969 30.7461C65.5234 30.9961 65.8594 31.1211 66.3047 31.1211H67.0664V32H63.3164L63.0352 29.7617C62.5898 30.5586 62.0664 31.1602 61.4648 31.5664C60.8711 31.9648 60.2031 32.1641 59.4609 32.1641C58.2109 32.1641 57.1445 31.6406 56.2617 30.5938C55.3867 29.5469 54.9492 28.1641 54.9492 26.4453C54.9492 24.5859 55.5117 23.1016 56.6367 21.9922C57.5195 21.125 58.5352 20.6914 59.6836 20.6914C60.3867 20.6914 61.0156 20.8672 61.5703 21.2188C62.1328 21.5703 62.6211 22.1016 63.0352 22.8125V16.6133C63.0352 16.2852 62.9062 16.0273 62.6484 15.8398C62.3984 15.6445 62.0039 15.5469 61.4648 15.5469H60.6797V14.668ZM60 21.6641C59.1562 21.6641 58.4844 22.0117 57.9844 22.707C57.4922 23.4023 57.2461 24.5742 57.2461 26.2227C57.2461 28.0117 57.5 29.2734 58.0078 30.0078C58.5156 30.7344 59.168 31.0977 59.9648 31.0977C60.8164 31.0977 61.543 30.6914 62.1445 29.8789C62.7539 29.0586 63.0586 27.8633 63.0586 26.293C63.0586 24.8086 62.7344 23.6406 62.0859 22.7891C61.5234 22.0391 60.8281 21.6641 60 21.6641ZM78.5391 26.5859H70.6758C70.7148 28.2578 71.0273 29.4375 71.6133 30.125C72.2852 30.8984 73.1406 31.2852 74.1797 31.2852C75.7109 31.2852 76.9414 30.4141 77.8711 28.6719L78.6328 29C77.4922 31.2188 75.8438 32.3281 73.6875 32.3281C72.2188 32.3281 70.9805 31.7969 69.9727 30.7344C68.9727 29.6719 68.4727 28.3125 68.4727 26.6562C68.4727 24.875 68.9648 23.4375 69.9492 22.3438C70.9414 21.2422 72.1602 20.6914 73.6055 20.6914C74.668 20.6914 75.5859 20.9648 76.3594 21.5117C77.1328 22.0586 77.7148 22.8438 78.1055 23.8672C78.3789 24.5859 78.5234 25.4922 78.5391 26.5859ZM70.6758 25.7539H75.4336C75.7148 25.7539 75.9336 25.6602 76.0898 25.4727C76.2461 25.2773 76.3242 24.9492 76.3242 24.4883C76.3242 23.6289 76.0547 22.8984 75.5156 22.2969C74.9844 21.6953 74.3555 21.3945 73.6289 21.3945C72.8164 21.3945 72.125 21.7578 71.5547 22.4844C70.9922 23.2109 70.6992 24.3008 70.6758 25.7539ZM84.375 14.4688V30.3828C84.375 30.6016 84.4414 30.7695 84.5742 30.8867C84.7695 31.043 85.0078 31.1211 85.2891 31.1211H86.4492V32H80.2383V31.1211H81.3398C81.6992 31.1211 81.9648 31.0352 82.1367 30.8633C82.3164 30.6914 82.4062 30.4492 82.4062 30.1367V16.7773C82.4062 16.3867 82.3008 16.1016 82.0898 15.9219C81.8008 15.6719 81.4453 15.5469 81.0234 15.5469H80.0391V14.668L84.375 14.4688ZM98.1094 26.5859H90.2461C90.2852 28.2578 90.5977 29.4375 91.1836 30.125C91.8555 30.8984 92.7109 31.2852 93.75 31.2852C95.2812 31.2852 96.5117 30.4141 97.4414 28.6719L98.2031 29C97.0625 31.2188 95.4141 32.3281 93.2578 32.3281C91.7891 32.3281 90.5508 31.7969 89.543 30.7344C88.543 29.6719 88.043 28.3125 88.043 26.6562C88.043 24.875 88.5352 23.4375 89.5195 22.3438C90.5117 21.2422 91.7305 20.6914 93.1758 20.6914C94.2383 20.6914 95.1562 20.9648 95.9297 21.5117C96.7031 22.0586 97.2852 22.8438 97.6758 23.8672C97.9492 24.5859 98.0938 25.4922 98.1094 26.5859ZM90.2461 25.7539H95.0039C95.2852 25.7539 95.5039 25.6602 95.6602 25.4727C95.8164 25.2773 95.8945 24.9492 95.8945 24.4883C95.8945 23.6289 95.625 22.8984 95.0859 22.2969C94.5547 21.6953 93.9258 21.3945 93.1992 21.3945C92.3867 21.3945 91.6953 21.7578 91.125 22.4844C90.5625 23.2109 90.2695 24.3008 90.2461 25.7539ZM110.109 26.5859H102.246C102.285 28.2578 102.598 29.4375 103.184 30.125C103.855 30.8984 104.711 31.2852 105.75 31.2852C107.281 31.2852 108.512 30.4141 109.441 28.6719L110.203 29C109.062 31.2188 107.414 32.3281 105.258 32.3281C103.789 32.3281 102.551 31.7969 101.543 30.7344C100.543 29.6719 100.043 28.3125 100.043 26.6562C100.043 24.875 100.535 23.4375 101.52 22.3438C102.512 21.2422 103.73 20.6914 105.176 20.6914C106.238 20.6914 107.156 20.9648 107.93 21.5117C108.703 22.0586 109.285 22.8438 109.676 23.8672C109.949 24.5859 110.094 25.4922 110.109 26.5859ZM102.246 25.7539H107.004C107.285 25.7539 107.504 25.6602 107.66 25.4727C107.816 25.2773 107.895 24.9492 107.895 24.4883C107.895 23.6289 107.625 22.8984 107.086 22.2969C106.555 21.6953 105.926 21.3945 105.199 21.3945C104.387 21.3945 103.695 21.7578 103.125 22.4844C102.562 23.2109 102.27 24.3008 102.246 25.7539ZM111.328 21.0195H116.73V21.8164C116.012 21.832 115.551 21.8984 115.348 22.0156C115.152 22.125 115.055 22.2852 115.055 22.4961C115.055 22.668 115.094 22.8398 115.172 23.0117L118.078 29.4922L120.738 23.2109C120.777 23.1016 120.797 22.9922 120.797 22.8828C120.797 22.3125 120.234 21.957 119.109 21.8164V21.0195H123.656V21.8164C123.195 21.8633 122.828 21.9883 122.555 22.1914C122.281 22.3945 122.07 22.668 121.922 23.0117L117.891 32.3281H117.258L112.945 22.7539C112.789 22.4102 112.598 22.1719 112.371 22.0391C112.152 21.8984 111.805 21.8242 111.328 21.8164V21.0195Z" fill="black"/>
<path d="M83.9648 56.6914C85.4414 56.6914 86.6797 57.2266 87.6797 58.2969C88.6875 59.3594 89.1914 60.7617 89.1914 62.5039C89.1914 63.707 88.9648 64.7344 88.5117 65.5859C88.0664 66.4297 87.4258 67.0977 86.5898 67.5898C85.7617 68.082 84.8672 68.3281 83.9062 68.3281C82.4844 68.3281 81.2773 67.7891 80.2852 66.7109C79.3008 65.6328 78.8086 64.2344 78.8086 62.5156C78.8086 60.7891 79.3047 59.3867 80.2969 58.3086C81.2891 57.2305 82.5117 56.6914 83.9648 56.6914ZM83.9648 57.5234C83.0898 57.5234 82.3711 57.9219 81.8086 58.7188C81.2461 59.5078 80.9648 60.7578 80.9648 62.4688C80.9648 64.2109 81.2422 65.4844 81.7969 66.2891C82.3594 67.0938 83.082 67.4961 83.9648 67.4961C84.8789 67.4961 85.6172 67.0938 86.1797 66.2891C86.75 65.4844 87.0352 64.168 87.0352 62.3398C87.0352 60.6445 86.7539 59.418 86.1914 58.6602C85.6367 57.9023 84.8945 57.5234 83.9648 57.5234ZM97.0078 50.668L101.297 50.4688V65.4922C101.297 66.0781 101.406 66.4961 101.625 66.7461C101.852 66.9961 102.188 67.1211 102.633 67.1211H103.395V68H99.6445L99.3633 65.7617C98.918 66.5586 98.3945 67.1602 97.793 67.5664C97.1992 67.9648 96.5312 68.1641 95.7891 68.1641C94.5391 68.1641 93.4727 67.6406 92.5898 66.5938C91.7148 65.5469 91.2773 64.1641 91.2773 62.4453C91.2773 60.5859 91.8398 59.1016 92.9648 57.9922C93.8477 57.125 94.8633 56.6914 96.0117 56.6914C96.7148 56.6914 97.3438 56.8672 97.8984 57.2188C98.4609 57.5703 98.9492 58.1016 99.3633 58.8125V52.6133C99.3633 52.2852 99.2344 52.0273 98.9766 51.8398C98.7266 51.6445 98.332 51.5469 97.793 51.5469H97.0078V50.668ZM96.3281 57.6641C95.4844 57.6641 94.8125 58.0117 94.3125 58.707C93.8203 59.4023 93.5742 60.5742 93.5742 62.2227C93.5742 64.0117 93.8281 65.2734 94.3359 66.0078C94.8438 66.7344 95.4961 67.0977 96.293 67.0977C97.1445 67.0977 97.8711 66.6914 98.4727 65.8789C99.082 65.0586 99.3867 63.8633 99.3867 62.293C99.3867 60.8086 99.0625 59.6406 98.4141 58.7891C97.8516 58.0391 97.1562 57.6641 96.3281 57.6641Z" fill="black"/>
<rect width="39" height="38" fill="#6BB14A" fill-opacity="0.8"/>
<rect x="39" y="38" width="39" height="38" fill="#6BB14A" fill-opacity="0.8"/>
<path d="M2.5625 5.04972C2.29498 5.04972 2.06712 4.97692 1.87891 4.83132C1.6907 4.68454 1.54688 4.47206 1.44744 4.19389C1.34801 3.91454 1.2983 3.57718 1.2983 3.18182C1.2983 2.78883 1.34801 2.45324 1.44744 2.17507C1.54806 1.89571 1.69247 1.68265 1.88068 1.53587C2.07008 1.3879 2.29735 1.31392 2.5625 1.31392C2.82765 1.31392 3.05433 1.3879 3.24254 1.53587C3.43194 1.68265 3.57635 1.89571 3.67578 2.17507C3.7764 2.45324 3.8267 2.78883 3.8267 3.18182C3.8267 3.57718 3.77699 3.91454 3.67756 4.19389C3.57812 4.47206 3.4343 4.68454 3.24609 4.83132C3.05788 4.97692 2.83002 5.04972 2.5625 5.04972ZM2.5625 4.65909C2.82765 4.65909 3.03362 4.53125 3.1804 4.27557C3.32718 4.01989 3.40057 3.6553 3.40057 3.18182C3.40057 2.86695 3.36683 2.59884 3.29936 2.37749C3.23307 2.15613 3.13719 1.98745 3.01172 1.87145C2.88743 1.75545 2.73769 1.69744 2.5625 1.69744C2.29972 1.69744 2.09434 1.82706 1.94638 2.08629C1.79841 2.34434 1.72443 2.70952 1.72443 3.18182C1.72443 3.49669 1.75758 3.7642 1.82386 3.98438C1.89015 4.20455 1.98544 4.37204 2.10973 4.48686C2.2352 4.60168 2.38613 4.65909 2.5625 4.65909ZM5.65909 1.31392C5.80824 1.3151 5.95739 1.34351 6.10653 1.39915C6.25568 1.45478 6.39181 1.54711 6.51491 1.67614C6.63802 1.80398 6.73686 1.97857 6.81143 2.19993C6.88601 2.42128 6.9233 2.69886 6.9233 3.03267C6.9233 3.35582 6.89252 3.64287 6.83097 3.89382C6.7706 4.14358 6.683 4.35429 6.56818 4.52592C6.45455 4.69756 6.31605 4.82777 6.1527 4.91655C5.99053 5.00533 5.80705 5.04972 5.60227 5.04972C5.39867 5.04972 5.21697 5.00947 5.05717 4.92898C4.89856 4.8473 4.76835 4.73426 4.66655 4.58984C4.56593 4.44425 4.50142 4.27557 4.47301 4.08381H4.90625C4.94531 4.25071 5.02285 4.38861 5.13885 4.49751C5.25604 4.60523 5.41051 4.65909 5.60227 4.65909C5.88281 4.65909 6.10417 4.53658 6.26634 4.29155C6.42969 4.04652 6.51136 3.70028 6.51136 3.25284H6.48295C6.41667 3.35227 6.33795 3.43809 6.2468 3.5103C6.15566 3.5825 6.05445 3.63814 5.94318 3.6772C5.83191 3.71626 5.71354 3.7358 5.58807 3.7358C5.37973 3.7358 5.18857 3.6843 5.01456 3.58132C4.84174 3.47715 4.70324 3.33452 4.59908 3.15341C4.49609 2.97112 4.4446 2.76278 4.4446 2.52841C4.4446 2.30587 4.49432 2.10227 4.59375 1.91761C4.69437 1.73177 4.83523 1.58381 5.01634 1.47372C5.19863 1.36364 5.41288 1.31037 5.65909 1.31392ZM5.65909 1.70455C5.50994 1.70455 5.37559 1.74183 5.25604 1.81641C5.13767 1.8898 5.04356 1.98923 4.97372 2.1147C4.90507 2.23899 4.87074 2.37689 4.87074 2.52841C4.87074 2.67992 4.90388 2.81783 4.97017 2.94212C5.03764 3.06522 5.12938 3.16347 5.24538 3.23686C5.36257 3.30907 5.49574 3.34517 5.64489 3.34517C5.75734 3.34517 5.8621 3.32327 5.95916 3.27947C6.05623 3.23449 6.14086 3.17353 6.21307 3.09659C6.28646 3.01847 6.34387 2.93028 6.3853 2.83203C6.42673 2.7326 6.44744 2.62902 6.44744 2.52131C6.44744 2.37926 6.41312 2.24609 6.34446 2.1218C6.27699 1.99751 6.18348 1.8969 6.06392 1.81996C5.94555 1.74302 5.81061 1.70455 5.65909 1.70455Z" fill="black"/>
<path d="M40.6548 39.3636V43H40.2145V39.8253H40.1932L39.3054 40.4148V39.9673L40.2145 39.3636H40.6548ZM42.979 39.3636V43H42.5387V39.8253H42.5174L41.6296 40.4148V39.9673L42.5387 39.3636H42.979Z" fill="black"/>
<path d="M0.448242 12.5015H6.94775L12.7617 27.8999L18.1274 12.5015H24.772V13.4902H23.1504C22.5791 13.4902 22.1924 13.5737 21.9902 13.7407C21.7969 13.9077 21.7002 14.1978 21.7002 14.6108V30.0488C21.7002 30.3564 21.8188 30.5938 22.0562 30.7607C22.2935 30.9277 22.7021 31.0112 23.2822 31.0112H24.772V32H15.8599V31.0112H17.521C17.9956 31.0112 18.3472 30.9233 18.5757 30.7476C18.8042 30.563 18.9185 30.3301 18.9185 30.0488V13.4902L12.4717 32H11.5752L4.64062 13.5693V27.7417C4.64062 28.5854 4.74609 29.2183 4.95703 29.6401C5.16797 30.0532 5.4668 30.374 5.85352 30.6025C6.24902 30.8223 6.89941 30.9585 7.80469 31.0112V32H0.448242V31.0112C1.65234 30.9321 2.46973 30.6729 2.90039 30.2334C3.33105 29.7939 3.54639 29.0161 3.54639 27.8999V14.4526C3.54639 14.1187 3.44531 13.877 3.24316 13.7275C3.04102 13.5693 2.66309 13.4902 2.10938 13.4902H0.448242V12.5015ZM36.583 26.5859H28.7197C28.7588 28.2578 29.0713 29.4375 29.6572 30.125C30.3291 30.8984 31.1846 31.2852 32.2236 31.2852C33.7549 31.2852 34.9854 30.4141 35.915 28.6719L36.6768 29C35.5361 31.2188 33.8877 32.3281 31.7314 32.3281C30.2627 32.3281 29.0244 31.7969 28.0166 30.7344C27.0166 29.6719 26.5166 28.3125 26.5166 26.6562C26.5166 24.875 27.0088 23.4375 27.9932 22.3438C28.9854 21.2422 30.2041 20.6914 31.6494 20.6914C32.7119 20.6914 33.6299 20.9648 34.4033 21.5117C35.1768 22.0586 35.7588 22.8438 36.1494 23.8672C36.4229 24.5859 36.5674 25.4922 36.583 26.5859ZM28.7197 25.7539H33.4775C33.7588 25.7539 33.9775 25.6602 34.1338 25.4727C34.29 25.2773 34.3682 24.9492 34.3682 24.4883C34.3682 23.6289 34.0986 22.8984 33.5596 22.2969C33.0283 21.6953 32.3994 21.3945 31.6729 21.3945C30.8604 21.3945 30.1689 21.7578 29.5986 22.4844C29.0361 23.2109 28.7432 24.3008 28.7197 25.7539Z" fill="black"/>
<path d="M46.3975 48.5015H62.2573L62.521 55.2515H61.6113C61.207 52.9312 60.6401 51.4194 59.9106 50.7163C59.0757 49.8989 57.8848 49.4902 56.3379 49.4902H53.2134C52.9058 49.4902 52.6816 49.5649 52.541 49.7144C52.4004 49.855 52.3301 50.0703 52.3301 50.3604V57.4136H54.0044C54.936 57.4136 55.6787 57.106 56.2324 56.4907C56.7861 55.8755 57.085 54.9263 57.1289 53.6431H58.0781V62.4365H57.1289C57.0674 60.9775 56.7686 59.936 56.2324 59.312C55.6963 58.688 54.9536 58.376 54.0044 58.376H52.3301V65.8115C52.3301 66.251 52.4355 66.563 52.6465 66.7476C52.8574 66.9233 53.2222 67.0112 53.7407 67.0112H55.771V68H46.3975V67.0112H48.4014C48.8057 67.0112 49.0913 66.9321 49.2583 66.7739C49.4341 66.6069 49.522 66.3389 49.522 65.9697V50.4658C49.522 50.1143 49.4297 49.8638 49.2451 49.7144C49.0693 49.5649 48.7573 49.4902 48.3091 49.4902H46.3975V48.5015ZM68.9736 56.6914C70.4502 56.6914 71.6885 57.2266 72.6885 58.2969C73.6963 59.3594 74.2002 60.7617 74.2002 62.5039C74.2002 63.707 73.9736 64.7344 73.5205 65.5859C73.0752 66.4297 72.4346 67.0977 71.5986 67.5898C70.7705 68.082 69.876 68.3281 68.915 68.3281C67.4932 68.3281 66.2861 67.7891 65.2939 66.7109C64.3096 65.6328 63.8174 64.2344 63.8174 62.5156C63.8174 60.7891 64.3135 59.3867 65.3057 58.3086C66.2979 57.2305 67.5205 56.6914 68.9736 56.6914ZM68.9736 57.5234C68.0986 57.5234 67.3799 57.9219 66.8174 58.7188C66.2549 59.5078 65.9736 60.7578 65.9736 62.4688C65.9736 64.2109 66.251 65.4844 66.8057 66.2891C67.3682 67.0938 68.0908 67.4961 68.9736 67.4961C69.8877 67.4961 70.626 67.0938 71.1885 66.2891C71.7588 65.4844 72.0439 64.168 72.0439 62.3398C72.0439 60.6445 71.7627 59.418 71.2002 58.6602C70.6455 57.9023 69.9033 57.5234 68.9736 57.5234Z" fill="black"/>
<path d="M25.5625 5.04972C25.295 5.04972 25.0671 4.97692 24.8789 4.83132C24.6907 4.68454 24.5469 4.47206 24.4474 4.19389C24.348 3.91454 24.2983 3.57718 24.2983 3.18182C24.2983 2.78883 24.348 2.45324 24.4474 2.17507C24.5481 1.89571 24.6925 1.68265 24.8807 1.53587C25.0701 1.3879 25.2973 1.31392 25.5625 1.31392C25.8277 1.31392 26.0543 1.3879 26.2425 1.53587C26.4319 1.68265 26.5763 1.89571 26.6758 2.17507C26.7764 2.45324 26.8267 2.78883 26.8267 3.18182C26.8267 3.57718 26.777 3.91454 26.6776 4.19389C26.5781 4.47206 26.4343 4.68454 26.2461 4.83132C26.0579 4.97692 25.83 5.04972 25.5625 5.04972ZM25.5625 4.65909C25.8277 4.65909 26.0336 4.53125 26.1804 4.27557C26.3272 4.01989 26.4006 3.6553 26.4006 3.18182C26.4006 2.86695 26.3668 2.59884 26.2994 2.37749C26.2331 2.15613 26.1372 1.98745 26.0117 1.87145C25.8874 1.75545 25.7377 1.69744 25.5625 1.69744C25.2997 1.69744 25.0943 1.82706 24.9464 2.08629C24.7984 2.34434 24.7244 2.70952 24.7244 3.18182C24.7244 3.49669 24.7576 3.7642 24.8239 3.98438C24.8902 4.20455 24.9854 4.37204 25.1097 4.48686C25.2352 4.60168 25.3861 4.65909 25.5625 4.65909ZM28.6662 5.04972C28.4223 5.04972 28.2069 5.00651 28.0199 4.9201C27.834 4.8325 27.689 4.71236 27.5849 4.55966C27.4807 4.40578 27.4292 4.23059 27.4304 4.03409C27.4292 3.88021 27.4594 3.73816 27.521 3.60795C27.5825 3.47656 27.6665 3.36707 27.7731 3.27947C27.8808 3.1907 28.0009 3.13447 28.1335 3.1108V3.08949C27.9595 3.04451 27.821 2.94685 27.718 2.79652C27.6151 2.645 27.5642 2.47277 27.5653 2.27983C27.5642 2.09517 27.6109 1.93004 27.7056 1.78445C27.8003 1.63885 27.9305 1.52403 28.0962 1.43999C28.2631 1.35594 28.4531 1.31392 28.6662 1.31392C28.8769 1.31392 29.0651 1.35594 29.2308 1.43999C29.3965 1.52403 29.5268 1.63885 29.6214 1.78445C29.7173 1.93004 29.7659 2.09517 29.767 2.27983C29.7659 2.47277 29.7132 2.645 29.609 2.79652C29.506 2.94685 29.3693 3.04451 29.1989 3.08949V3.1108C29.3303 3.13447 29.4486 3.1907 29.554 3.27947C29.6593 3.36707 29.7434 3.47656 29.8061 3.60795C29.8688 3.73816 29.9008 3.88021 29.902 4.03409C29.9008 4.23059 29.8475 4.40578 29.7422 4.55966C29.638 4.71236 29.493 4.8325 29.3072 4.9201C29.1225 5.00651 28.9089 5.04972 28.6662 5.04972ZM28.6662 4.65909C28.8307 4.65909 28.9728 4.63246 29.0923 4.57919C29.2119 4.52592 29.3042 4.45076 29.3693 4.35369C29.4344 4.25663 29.4676 4.14299 29.4688 4.01278C29.4676 3.87547 29.4321 3.75414 29.3622 3.64879C29.2924 3.54344 29.1971 3.46058 29.0763 3.40021C28.9568 3.33984 28.8201 3.30966 28.6662 3.30966C28.5111 3.30966 28.3726 3.33984 28.2507 3.40021C28.13 3.46058 28.0347 3.54344 27.9648 3.64879C27.8962 3.75414 27.8625 3.87547 27.8636 4.01278C27.8625 4.14299 27.8938 4.25663 27.9577 4.35369C28.0228 4.45076 28.1158 4.52592 28.2365 4.57919C28.3572 4.63246 28.5005 4.65909 28.6662 4.65909ZM28.6662 2.93324C28.7964 2.93324 28.9118 2.9072 29.0124 2.85511C29.1142 2.80303 29.1941 2.73023 29.2521 2.63672C29.3101 2.54321 29.3397 2.43371 29.3409 2.30824C29.3397 2.18513 29.3107 2.07801 29.2539 1.98686C29.1971 1.89453 29.1184 1.82351 29.0178 1.77379C28.9171 1.72289 28.8 1.69744 28.6662 1.69744C28.5301 1.69744 28.4111 1.72289 28.3093 1.77379C28.2075 1.82351 28.1288 1.89453 28.0732 1.98686C28.0175 2.07801 27.9903 2.18513 27.9915 2.30824C27.9903 2.43371 28.0181 2.54321 28.0749 2.63672C28.1329 2.73023 28.2128 2.80303 28.3146 2.85511C28.4164 2.9072 28.5336 2.93324 28.6662 2.93324ZM30.7827 5.02841C30.6951 5.02841 30.6199 4.99704 30.5572 4.9343C30.4944 4.87157 30.4631 4.7964 30.4631 4.70881C30.4631 4.62121 30.4944 4.54605 30.5572 4.48331C30.6199 4.42057 30.6951 4.3892 30.7827 4.3892C30.8703 4.3892 30.9454 4.42057 31.0082 4.48331C31.0709 4.54605 31.1023 4.62121 31.1023 4.70881C31.1023 4.76681 31.0875 4.82008 31.0579 4.86861C31.0295 4.91714 30.991 4.9562 30.9425 4.9858C30.8951 5.0142 30.8419 5.02841 30.7827 5.02841ZM32.9062 5.04972C32.6387 5.04972 32.4109 4.97692 32.2227 4.83132C32.0344 4.68454 31.8906 4.47206 31.7912 4.19389C31.6918 3.91454 31.642 3.57718 31.642 3.18182C31.642 2.78883 31.6918 2.45324 31.7912 2.17507C31.8918 1.89571 32.0362 1.68265 32.2244 1.53587C32.4138 1.3879 32.6411 1.31392 32.9062 1.31392C33.1714 1.31392 33.3981 1.3879 33.5863 1.53587C33.7757 1.68265 33.9201 1.89571 34.0195 2.17507C34.1201 2.45324 34.1705 2.78883 34.1705 3.18182C34.1705 3.57718 34.1207 3.91454 34.0213 4.19389C33.9219 4.47206 33.7781 4.68454 33.5898 4.83132C33.4016 4.97692 33.1738 5.04972 32.9062 5.04972ZM32.9062 4.65909C33.1714 4.65909 33.3774 4.53125 33.5241 4.27557C33.6709 4.01989 33.7443 3.6553 33.7443 3.18182C33.7443 2.86695 33.7106 2.59884 33.6431 2.37749C33.5768 2.15613 33.4809 1.98745 33.3555 1.87145C33.2312 1.75545 33.0814 1.69744 32.9062 1.69744C32.6435 1.69744 32.4381 1.82706 32.2901 2.08629C32.1422 2.34434 32.0682 2.70952 32.0682 3.18182C32.0682 3.49669 32.1013 3.7642 32.1676 3.98438C32.2339 4.20455 32.3292 4.37204 32.4535 4.48686C32.579 4.60168 32.7299 4.65909 32.9062 4.65909ZM35.9815 5.04972C35.7732 5.04972 35.5856 5.00829 35.4187 4.92543C35.2518 4.84257 35.118 4.72893 35.0174 4.58452C34.9168 4.4401 34.8617 4.27557 34.8523 4.09091H35.2784C35.295 4.25545 35.3696 4.39157 35.5021 4.49929C35.6359 4.60582 35.7957 4.65909 35.9815 4.65909C36.1307 4.65909 36.2633 4.62417 36.3793 4.55433C36.4964 4.48449 36.5882 4.38861 36.6545 4.26669C36.7219 4.14358 36.7557 4.0045 36.7557 3.84943C36.7557 3.69081 36.7208 3.54936 36.6509 3.42507C36.5823 3.2996 36.4876 3.20076 36.3668 3.12855C36.2461 3.05634 36.1082 3.01965 35.9531 3.01847C35.8419 3.01728 35.7276 3.03445 35.6104 3.06996C35.4933 3.10428 35.3968 3.14867 35.321 3.20312L34.9091 3.15341L35.1293 1.36364H37.0185V1.75426H35.4986L35.3707 2.8267H35.392C35.4666 2.76752 35.5601 2.71839 35.6726 2.67933C35.785 2.64027 35.9022 2.62074 36.0241 2.62074C36.2467 2.62074 36.445 2.67401 36.619 2.78054C36.7942 2.88589 36.9315 3.0303 37.0309 3.21378C37.1315 3.39725 37.1818 3.60677 37.1818 3.84233C37.1818 4.07434 37.1297 4.28149 37.0256 4.46378C36.9226 4.64489 36.7805 4.78812 36.5994 4.89347C36.4183 4.99763 36.2124 5.04972 35.9815 5.04972Z" fill="black"/>
<path d="M65.5625 43.0497C65.295 43.0497 65.0671 42.9769 64.8789 42.8313C64.6907 42.6845 64.5469 42.4721 64.4474 42.1939C64.348 41.9145 64.2983 41.5772 64.2983 41.1818C64.2983 40.7888 64.348 40.4532 64.4474 40.1751C64.5481 39.8957 64.6925 39.6826 64.8807 39.5359C65.0701 39.3879 65.2973 39.3139 65.5625 39.3139C65.8277 39.3139 66.0543 39.3879 66.2425 39.5359C66.4319 39.6826 66.5763 39.8957 66.6758 40.1751C66.7764 40.4532 66.8267 40.7888 66.8267 41.1818C66.8267 41.5772 66.777 41.9145 66.6776 42.1939C66.5781 42.4721 66.4343 42.6845 66.2461 42.8313C66.0579 42.9769 65.83 43.0497 65.5625 43.0497ZM65.5625 42.6591C65.8277 42.6591 66.0336 42.5312 66.1804 42.2756C66.3272 42.0199 66.4006 41.6553 66.4006 41.1818C66.4006 40.867 66.3668 40.5988 66.2994 40.3775C66.2331 40.1561 66.1372 39.9875 66.0117 39.8714C65.8874 39.7554 65.7377 39.6974 65.5625 39.6974C65.2997 39.6974 65.0943 39.8271 64.9464 40.0863C64.7984 40.3443 64.7244 40.7095 64.7244 41.1818C64.7244 41.4967 64.7576 41.7642 64.8239 41.9844C64.8902 42.2045 64.9854 42.372 65.1097 42.4869C65.2352 42.6017 65.3861 42.6591 65.5625 42.6591ZM68.6591 39.3139C68.8082 39.3151 68.9574 39.3435 69.1065 39.3991C69.2557 39.4548 69.3918 39.5471 69.5149 39.6761C69.638 39.804 69.7369 39.9786 69.8114 40.1999C69.886 40.4213 69.9233 40.6989 69.9233 41.0327C69.9233 41.3558 69.8925 41.6429 69.831 41.8938C69.7706 42.1436 69.683 42.3543 69.5682 42.5259C69.4545 42.6976 69.3161 42.8278 69.1527 42.9165C68.9905 43.0053 68.8071 43.0497 68.6023 43.0497C68.3987 43.0497 68.217 43.0095 68.0572 42.929C67.8986 42.8473 67.7683 42.7343 67.6665 42.5898C67.5659 42.4442 67.5014 42.2756 67.473 42.0838H67.9062C67.9453 42.2507 68.0228 42.3886 68.1388 42.4975C68.256 42.6052 68.4105 42.6591 68.6023 42.6591C68.8828 42.6591 69.1042 42.5366 69.2663 42.2915C69.4297 42.0465 69.5114 41.7003 69.5114 41.2528H69.483C69.4167 41.3523 69.3379 41.4381 69.2468 41.5103C69.1557 41.5825 69.0545 41.6381 68.9432 41.6772C68.8319 41.7163 68.7135 41.7358 68.5881 41.7358C68.3797 41.7358 68.1886 41.6843 68.0146 41.5813C67.8417 41.4772 67.7032 41.3345 67.5991 41.1534C67.4961 40.9711 67.4446 40.7628 67.4446 40.5284C67.4446 40.3059 67.4943 40.1023 67.5938 39.9176C67.6944 39.7318 67.8352 39.5838 68.0163 39.4737C68.1986 39.3636 68.4129 39.3104 68.6591 39.3139ZM68.6591 39.7045C68.5099 39.7045 68.3756 39.7418 68.256 39.8164C68.1377 39.8898 68.0436 39.9892 67.9737 40.1147C67.9051 40.239 67.8707 40.3769 67.8707 40.5284C67.8707 40.6799 67.9039 40.8178 67.9702 40.9421C68.0376 41.0652 68.1294 41.1635 68.2454 41.2369C68.3626 41.3091 68.4957 41.3452 68.6449 41.3452C68.7573 41.3452 68.8621 41.3233 68.9592 41.2795C69.0562 41.2345 69.1409 41.1735 69.2131 41.0966C69.2865 41.0185 69.3439 40.9303 69.3853 40.832C69.4267 40.7326 69.4474 40.629 69.4474 40.5213C69.4474 40.3793 69.4131 40.2461 69.3445 40.1218C69.277 39.9975 69.1835 39.8969 69.0639 39.82C68.9455 39.743 68.8106 39.7045 68.6591 39.7045ZM70.8071 43.0284C70.7195 43.0284 70.6443 42.997 70.5816 42.9343C70.5189 42.8716 70.4875 42.7964 70.4875 42.7088C70.4875 42.6212 70.5189 42.546 70.5816 42.4833C70.6443 42.4206 70.7195 42.3892 70.8071 42.3892C70.8947 42.3892 70.9698 42.4206 71.0326 42.4833C71.0953 42.546 71.1267 42.6212 71.1267 42.7088C71.1267 42.7668 71.1119 42.8201 71.0823 42.8686C71.0539 42.9171 71.0154 42.9562 70.9669 42.9858C70.9195 43.0142 70.8663 43.0284 70.8071 43.0284ZM71.8715 43V42.6804L73.0718 41.3665C73.2127 41.2126 73.3287 41.0788 73.4198 40.9652C73.511 40.8504 73.5785 40.7427 73.6222 40.642C73.6672 40.5402 73.6897 40.4337 73.6897 40.3224C73.6897 40.1946 73.6589 40.0839 73.5974 39.9904C73.537 39.8969 73.4542 39.8247 73.3488 39.7738C73.2435 39.7229 73.1251 39.6974 72.9937 39.6974C72.854 39.6974 72.7321 39.7264 72.6279 39.7844C72.5249 39.8413 72.445 39.9212 72.3882 40.0241C72.3326 40.1271 72.3048 40.2479 72.3048 40.3864H71.8857C71.8857 40.1733 71.9349 39.9863 72.0331 39.8253C72.1314 39.6643 72.2651 39.5388 72.4344 39.4489C72.6048 39.3589 72.796 39.3139 73.0079 39.3139C73.221 39.3139 73.4098 39.3589 73.5743 39.4489C73.7388 39.5388 73.8679 39.6602 73.9614 39.8129C74.0549 39.9656 74.1017 40.1354 74.1017 40.3224C74.1017 40.4562 74.0774 40.587 74.0289 40.7148C73.9815 40.8415 73.8986 40.983 73.7803 41.1392C73.6631 41.2943 73.5003 41.4837 73.292 41.7074L72.4752 42.581V42.6094H74.1656V43H71.8715ZM76.0637 43.0497C75.8198 43.0497 75.6044 43.0065 75.4173 42.9201C75.2315 42.8325 75.0865 42.7124 74.9823 42.5597C74.8782 42.4058 74.8267 42.2306 74.8279 42.0341C74.8267 41.8802 74.8569 41.7382 74.9184 41.608C74.98 41.4766 75.064 41.3671 75.1705 41.2795C75.2783 41.1907 75.3984 41.1345 75.531 41.1108V41.0895C75.357 41.0445 75.2185 40.9469 75.1155 40.7965C75.0125 40.645 74.9616 40.4728 74.9628 40.2798C74.9616 40.0952 75.0084 39.93 75.1031 39.7844C75.1978 39.6388 75.328 39.524 75.4937 39.44C75.6606 39.3559 75.8506 39.3139 76.0637 39.3139C76.2744 39.3139 76.4626 39.3559 76.6283 39.44C76.794 39.524 76.9242 39.6388 77.0189 39.7844C77.1148 39.93 77.1633 40.0952 77.1645 40.2798C77.1633 40.4728 77.1106 40.645 77.0065 40.7965C76.9035 40.9469 76.7668 41.0445 76.5963 41.0895V41.1108C76.7277 41.1345 76.8461 41.1907 76.9514 41.2795C77.0568 41.3671 77.1408 41.4766 77.2036 41.608C77.2663 41.7382 77.2983 41.8802 77.2994 42.0341C77.2983 42.2306 77.245 42.4058 77.1396 42.5597C77.0355 42.7124 76.8905 42.8325 76.7046 42.9201C76.52 43.0065 76.3063 43.0497 76.0637 43.0497ZM76.0637 42.6591C76.2282 42.6591 76.3702 42.6325 76.4898 42.5792C76.6093 42.5259 76.7017 42.4508 76.7668 42.3537C76.8319 42.2566 76.865 42.143 76.8662 42.0128C76.865 41.8755 76.8295 41.7541 76.7597 41.6488C76.6898 41.5434 76.5945 41.4606 76.4738 41.4002C76.3543 41.3398 76.2175 41.3097 76.0637 41.3097C75.9086 41.3097 75.7701 41.3398 75.6482 41.4002C75.5274 41.4606 75.4321 41.5434 75.3623 41.6488C75.2936 41.7541 75.2599 41.8755 75.2611 42.0128C75.2599 42.143 75.2913 42.2566 75.3552 42.3537C75.4203 42.4508 75.5132 42.5259 75.634 42.5792C75.7547 42.6325 75.8979 42.6591 76.0637 42.6591ZM76.0637 40.9332C76.1939 40.9332 76.3093 40.9072 76.4099 40.8551C76.5117 40.803 76.5916 40.7302 76.6496 40.6367C76.7076 40.5432 76.7372 40.4337 76.7384 40.3082C76.7372 40.1851 76.7082 40.078 76.6514 39.9869C76.5945 39.8945 76.5158 39.8235 76.4152 39.7738C76.3146 39.7229 76.1974 39.6974 76.0637 39.6974C75.9275 39.6974 75.8086 39.7229 75.7068 39.7738C75.605 39.8235 75.5262 39.8945 75.4706 39.9869C75.415 40.078 75.3878 40.1851 75.3889 40.3082C75.3878 40.4337 75.4156 40.5432 75.4724 40.6367C75.5304 40.7302 75.6103 40.803 75.7121 40.8551C75.8139 40.9072 75.9311 40.9332 76.0637 40.9332Z" fill="black"/>
</svg>
