<svg width="90" height="91" viewBox="0 0 90 91" fill="none" xmlns="http://www.w3.org/2000/svg">
<g clip-path="url(#clip0_103_2)">
<path d="M42.276 5.95898C19.0698 5.95898 0.23584 24.793 0.23584 47.9991C0.23584 71.2053 19.0698 90.0392 42.276 90.0392C65.4821 90.0392 84.3161 71.2053 84.3161 47.9991C84.3161 24.793 65.4821 5.95898 42.276 5.95898ZM42.276 84.4339C22.1808 84.4339 5.84119 68.0943 5.84119 47.9991C5.84119 27.9039 22.1808 11.5643 42.276 11.5643C62.3712 11.5643 78.7108 27.9039 78.7108 47.9991C78.7108 68.0943 62.3712 84.4339 42.276 84.4339Z" fill="#7BBA5B"/>
<path d="M33.8679 62.0125V56.4071H47.8813C52.7299 56.4071 61.8947 52.9038 61.8947 39.5911C61.8947 26.2784 52.7299 22.775 47.8813 22.775H28.2626V62.0125H22.6572V67.6178H28.2626V78.8285H33.8679V67.6178H67.5V62.0125H33.8679ZM33.8679 28.3804H47.8813C48.2176 28.3804 56.2893 28.5205 56.2893 39.5911C56.2893 50.3253 48.7221 50.7738 47.8813 50.8018H33.8679V28.3804Z" fill="#7BBA5B"/>
</g>
<defs>
<clipPath id="clip0_103_2">
<rect width="89.6856" height="89.6856" fill="white" transform="translate(0.23584 0.353638)"/>
</clipPath>
</defs>
</svg>
